<svg id="visual" viewBox="0 0 900 600" width="900" height="600" xmlns="http://www.w3.org/2000/svg" xmlns:xlink="http://www.w3.org/1999/xlink" version="1.1"><rect x="0" y="0" width="900" height="600" fill="#FFFFFF"></rect><path d="M0 387L129 428L257 424L386 371L514 410L643 410L771 403L900 390L900 601L771 601L643 601L514 601L386 601L257 601L129 601L0 601Z" fill="#f0c808"></path><path d="M0 443L129 469L257 459L386 451L514 450L643 469L771 398L900 419L900 601L771 601L643 601L514 601L386 601L257 601L129 601L0 601Z" fill="#f4b400"></path><path d="M0 448L129 483L257 455L386 504L514 500L643 469L771 446L900 499L900 601L771 601L643 601L514 601L386 601L257 601L129 601L0 601Z" fill="#f69f00"></path><path d="M0 483L129 534L257 529L386 536L514 496L643 538L771 505L900 528L900 601L771 601L643 601L514 601L386 601L257 601L129 601L0 601Z" fill="#f68a00"></path><path d="M0 564L129 533L257 545L386 574L514 539L643 539L771 570L900 530L900 601L771 601L643 601L514 601L386 601L257 601L129 601L0 601Z" fill="#f5730a"></path></svg>