<svg id="visual" viewBox="0 0 900 600" width="900" height="600" xmlns="http://www.w3.org/2000/svg" xmlns:xlink="http://www.w3.org/1999/xlink" version="1.1"><path d="M0 211L82 211L82 109L164 109L164 97L245 97L245 187L327 187L327 235L409 235L409 193L491 193L491 193L573 193L573 139L655 139L655 217L736 217L736 133L818 133L818 259L900 259L900 127L900 0L900 0L818 0L818 0L736 0L736 0L655 0L655 0L573 0L573 0L491 0L491 0L409 0L409 0L327 0L327 0L245 0L245 0L164 0L164 0L82 0L82 0L0 0Z" fill="#ffffff"></path><path d="M0 295L82 295L82 217L164 217L164 205L245 205L245 277L327 277L327 343L409 343L409 313L491 313L491 241L573 241L573 229L655 229L655 307L736 307L736 181L818 181L818 307L900 307L900 247L900 125L900 257L818 257L818 131L736 131L736 215L655 215L655 137L573 137L573 191L491 191L491 191L409 191L409 233L327 233L327 185L245 185L245 95L164 95L164 107L82 107L82 209L0 209Z" fill="#fff1ca"></path><path d="M0 439L82 439L82 475L164 475L164 415L245 415L245 397L327 397L327 439L409 439L409 439L491 439L491 433L573 433L573 385L655 385L655 439L736 439L736 451L818 451L818 409L900 409L900 439L900 245L900 305L818 305L818 179L736 179L736 305L655 305L655 227L573 227L573 239L491 239L491 311L409 311L409 341L327 341L327 275L245 275L245 203L164 203L164 215L82 215L82 293L0 293Z" fill="#ffe396"></path><path d="M0 559L82 559L82 553L164 553L164 547L245 547L245 529L327 529L327 547L409 547L409 565L491 565L491 565L573 565L573 517L655 517L655 535L736 535L736 517L818 517L818 523L900 523L900 523L900 437L900 407L818 407L818 449L736 449L736 437L655 437L655 383L573 383L573 431L491 431L491 437L409 437L409 437L327 437L327 395L245 395L245 413L164 413L164 473L82 473L82 437L0 437Z" fill="#f9d55f"></path><path d="M0 601L82 601L82 601L164 601L164 601L245 601L245 601L327 601L327 601L409 601L409 601L491 601L491 601L573 601L573 601L655 601L655 601L736 601L736 601L818 601L818 601L900 601L900 601L900 521L900 521L818 521L818 515L736 515L736 533L655 533L655 515L573 515L573 563L491 563L491 563L409 563L409 545L327 545L327 527L245 527L245 545L164 545L164 551L82 551L82 557L0 557Z" fill="#f0c808"></path></svg>